<svg version="1.1"
     width="400" height="600">

     <rect width="100%" height="100%" fill="#fff"/>
     <rect width="100%" height="100%" stroke="#000" fill="transparent" stroke-width="60"/>
     <!-- left -->
     <polygon points="100,230, 100,110 160,110 160,230" fill="#000"/>
     <polygon points="100,360, 100,240 160,240 160,360" fill="#000"/>
     <polygon points="100,370, 100,490 160,490 160,370" fill="#000"/>

     <!-- middle -->
     <polygon points="230,305, 230,425 170,425 170,305" fill="#000"/>
     <polygon points="230,295, 230,175 170,175 170,295" fill="#000"/>

     <!-- right -->
     <polygon points="240,370, 240,490 300,490 300,370" fill="#000"/>
     <polygon points="240,360, 240,240 300,240 300,360" fill="#000"/>
     <polygon points="240,230, 240,110 300,110 300,230" fill="#000"/>
</svg>
